# xmcd
#
# Track frame offsets:
#	182
#	14405
#	32990
#	47810
#	64880
#	78460
#	95627
#	111392
#	125507
#	140477
#
# Disc length: 2060
#
# Revision: 1
# Processed by: cddbd v1.5.1PL0 Copyright (c) Steve Scherf et al.
# Submitted via: audiograbber 1.83.01
# Normalized: r0:TSWAP
#
DISCID=91080a0a
DTITLE=Various Artist - A Family Christmas Treasury
DYEAR=1991
DGENRE=Holiday Country
TTITLE0=Glen Campbell - The Christmas Song
TTITLE1=Tanya Tucker - What Child is This?
TTITLE2=The Gatlins - Little Drummer Boy
TTITLE3=Garth Brooks - Silent Night
TTITLE4=Suzy Bogguss - I'll Be Home For Christmas
TTITLE5=Wild Rose - Star of Bethlehem
TTITLE6=Eddie Rabbitt - Have Yourself A Merry Little Christmas
TTITLE7=Lacy J. Dalton - Silver Bells
TTITLE8=Eddy Raven - White Christmas
TTITLE9=Sawyer Brown - Please Come Home For Christmas
EXTD=
EXTT0=
EXTT1=
EXTT2=
EXTT3=
EXTT4=
EXTT5=
EXTT6=
EXTT7=
EXTT8=
EXTT9=
PLAYORDER=
